External Loads File
version=1
nRows=62
nColumns=13
Range=5.000000e-03-10 seconds
endheader
time 	forceRightX 	forceRightY 	forceRightZ 	pointRightX 	pointRightY 	pointRightZ 	forceLeftX 	forceLeftY 	forceLeftZ 	pointLeftX 	pointLeftY 	pointLeftZ 		
7.505000 -32.686945 -71.484189 -0.000000 0.075992 0.233818 -0.118480 -74.638089 330.713698 -0.000000 0.366460 0.366128 -0.366603
7.510000 -38.531280 -69.721827 -0.000000 0.073212 0.242873 -0.120563 -83.503761 358.423063 -0.000000 0.367955 0.355864 -0.366829
7.515000 -43.420000 -65.907656 -0.000000 0.071956 0.252109 -0.121289 -92.636351 382.588619 -0.000000 0.368846 0.345347 -0.366944
7.520000 -47.357379 -60.596912 -0.000000 0.071444 0.261436 -0.121385 -101.615156 402.765599 -0.000000 0.369487 0.334948 -0.366790
7.525000 -50.352931 -54.298721 -0.000000 0.071486 0.270977 -0.121551 -109.837425 419.018513 -0.000000 0.369624 0.324489 -0.366944
7.530000 -52.293774 -47.493773 -0.000000 0.072147 0.280618 -0.121545 -117.264352 431.734189 -0.000000 0.369167 0.313956 -0.366594
7.535000 -53.047712 -40.566726 -0.000000 0.073301 0.290378 -0.121650 -123.849987 441.661398 -0.000000 0.368051 0.303498 -0.366704
7.540000 -52.549055 -33.774453 -0.000000 0.074958 0.300306 -0.121783 -128.875294 449.946069 -0.000000 0.366540 0.292908 -0.366779
7.545000 -50.754288 -27.420937 -0.000000 0.077151 0.310341 -0.121881 -132.173307 457.556448 -0.000000 0.364063 0.282381 -0.366959
7.550000 -47.808174 -21.710660 -0.000000 0.079874 0.320504 -0.121941 -133.055669 465.329222 -0.000000 0.361500 0.271906 -0.366617
7.555000 -43.962608 -16.815376 -0.000000 0.083188 0.330526 -0.122183 -131.334951 473.563835 -0.000000 0.358662 0.261515 -0.367437
7.560000 -39.539657 -12.721877 -0.000000 0.086938 0.340609 -0.122295 -126.285928 482.374431 -0.000000 0.354256 0.251636 -0.366488
7.565000 -34.812866 -9.341912 -0.000000 0.091018 0.350609 -0.122581 -117.654662 491.532750 -0.000000 0.349750 0.241780 -0.366409
7.570000 -30.014890 -6.523243 -0.000000 0.095732 0.360615 -0.122869 -105.690138 500.610394 -0.000000 0.344542 0.232488 -0.365975
7.575000 -25.339578 -4.016181 -0.000000 0.100928 0.370447 -0.123124 -90.731767 509.164477 -0.000000 0.338802 0.223548 -0.365605
7.580000 -20.911116 -1.519303 -0.000000 0.106620 0.379866 -0.123411 -73.551067 516.690444 -0.000000 0.332553 0.214967 -0.365445
7.585000 -16.787350 1.317563 -0.000000 0.112693 0.389074 -0.123770 -54.355486 522.774735 -0.000000 0.325853 0.206669 -0.365224
7.590000 -12.955000 4.823945 -0.000000 0.119289 0.397999 -0.124113 -33.641215 526.910326 -0.000000 0.318598 0.198768 -0.365004
7.595000 -9.342457 9.276270 -0.000000 0.126263 0.406504 -0.124464 -12.625659 528.591894 -0.000000 0.311091 0.191210 -0.364764
7.600000 -5.857792 14.857154 -0.000000 0.133555 0.414517 -0.124887 7.123123 527.597241 -0.000000 0.303682 0.184159 -0.364503
7.605000 -2.366388 21.631969 -0.000000 0.141266 0.422012 -0.125124 25.899692 524.064186 -0.000000 0.295737 0.177703 -0.364295
7.610000 1.202444 29.484000 -0.000000 0.149249 0.428978 -0.125402 42.752748 518.438596 -0.000000 0.287531 0.171700 -0.364095
7.615000 4.852226 38.139124 -0.000000 0.157842 0.435234 -0.125465 57.621746 511.355858 -0.000000 0.279178 0.166139 -0.363890
7.620000 8.557812 47.168761 -0.000000 0.167627 0.441026 -0.124931 71.715036 503.307555 -0.000000 0.270566 0.161217 -0.363675
7.625000 11.491367 56.225984 -0.000000 0.175073 0.446313 -0.125820 79.844776 495.641013 -0.000000 0.261739 0.156715 -0.363404
7.630000 13.766572 64.848406 -0.000000 0.183695 0.451112 -0.126074 87.876319 487.973203 -0.000000 0.252722 0.152770 -0.363229
7.635000 15.037865 72.812284 -0.000000 0.192746 0.455335 -0.125976 95.602971 480.506570 -0.000000 0.243215 0.149362 -0.363116
7.640000 14.991342 80.105777 -0.000000 0.202330 0.458985 -0.125922 102.313492 473.386225 -0.000000 0.234103 0.146513 -0.362948
7.645000 13.627703 86.815415 -0.000000 0.211339 0.462097 -0.126321 108.204522 466.387841 -0.000000 0.224434 0.144274 -0.362788
7.650000 11.251458 93.036313 -0.000000 0.220545 0.464697 -0.126414 114.005165 458.959345 -0.000000 0.214662 0.142621 -0.362667
7.655000 8.149116 98.834603 -0.000000 0.229614 0.466516 -0.126458 119.553625 450.653421 -0.000000 0.204640 0.141753 -0.362631
7.660000 4.713250 104.182273 -0.000000 0.238859 0.467568 -0.124083 124.885345 441.028963 -0.000000 0.194603 0.141461 -0.362538
7.665000 1.098103 108.996434 -0.000000 0.247606 0.468176 -0.126528 129.062666 430.081736 -0.000000 0.184581 0.141919 -0.362533
7.670000 -2.223877 113.173207 -0.000000 0.256446 0.468143 -0.126647 132.779207 417.520315 -0.000000 0.174440 0.143000 -0.362435
7.675000 -5.210758 116.662146 -0.000000 0.265058 0.467555 -0.126728 135.357332 403.594480 -0.000000 0.164398 0.144882 -0.362305
7.680000 -7.685326 119.470019 -0.000000 0.273382 0.466546 -0.126719 136.925841 388.388628 -0.000000 0.154243 0.147460 -0.362138
7.685000 -9.695073 121.635454 -0.000000 0.281539 0.464988 -0.126884 137.074328 372.202788 -0.000000 0.144494 0.150523 -0.361855
7.690000 -11.033521 123.267896 -0.000000 0.289391 0.462293 -0.126912 136.448322 354.979327 -0.000000 0.134866 0.154297 -0.361694
7.695000 -11.934703 124.541158 -0.000000 0.297017 0.459784 -0.127040 134.584770 337.115494 -0.000000 0.125422 0.158729 -0.361479
7.700000 -13.575937 125.644435 -0.000000 0.304107 0.455796 -0.127024 128.915809 319.986861 -0.000000 0.116277 0.157484 -0.361345
7.705000 -13.894062 127.186948 -0.000000 0.310820 0.451624 -0.126860 125.414630 301.641962 -0.000000 0.107423 0.163025 -0.361204
7.710000 -14.031246 129.481254 -0.000000 0.317393 0.446960 -0.127083 121.547221 283.634679 -0.000000 0.098946 0.169041 -0.361073
7.715000 -14.218545 132.903957 -0.000000 0.323403 0.441827 -0.127028 117.291880 266.595805 -0.000000 0.090943 0.175618 -0.360965
7.720000 -14.361125 137.790061 -0.000000 0.328870 0.435589 -0.126939 113.316550 250.874471 -0.000000 0.083378 0.182611 -0.360825
7.725000 -12.756985 144.514520 -0.000000 0.333892 0.429159 -0.126631 112.836343 235.539186 -0.000000 0.076331 0.196332 -0.360753
7.730000 -12.992551 152.811338 -0.000000 0.338803 0.422070 -0.126526 110.080617 223.644191 -0.000000 0.069785 0.204082 -0.360762
7.735000 -13.398077 162.763434 -0.000000 0.343442 0.414488 -0.126406 108.320161 213.730432 -0.000000 0.063797 0.212242 -0.360727
7.740000 -14.092101 174.120708 -0.000000 0.347476 0.406361 -0.126237 107.349053 205.647058 -0.000000 0.058384 0.220702 -0.360691
7.745000 -15.041979 186.525668 -0.000000 0.351152 0.397939 -0.125666 106.909315 199.078904 -0.000000 0.053582 0.229538 -0.360696
7.750000 -16.180236 199.560203 -0.000000 0.354235 0.389038 -0.126259 106.638454 193.714438 -0.000000 0.049412 0.238626 -0.360649
7.755000 -17.761903 212.778946 -0.000000 0.356804 0.380400 -0.126017 105.896898 189.463455 -0.000000 0.045831 0.247966 -0.360612
7.760000 -18.997921 225.876221 -0.000000 0.358999 0.370840 -0.125902 105.063723 185.792126 -0.000000 0.042914 0.257496 -0.360605
7.765000 -20.262930 238.538542 -0.000000 0.360715 0.361157 -0.125799 103.544859 182.861814 -0.000000 0.040683 0.267134 -0.360626
7.770000 -21.409836 250.612437 -0.000000 0.361880 0.351338 -0.125623 101.398092 180.628815 -0.000000 0.039135 0.276878 -0.360649
7.775000 -23.186521 262.000679 -0.000000 0.362646 0.342410 -0.124688 98.271010 179.367796 -0.000000 0.038204 0.286566 -0.360702
7.780000 -23.905144 272.938374 -0.000000 0.362709 0.332441 -0.124963 95.678527 178.286636 -0.000000 0.037894 0.296361 -0.360788
7.785000 -24.041196 283.560431 -0.000000 0.362338 0.322246 -0.124840 93.611258 177.293211 -0.000000 0.037947 0.306216 -0.360724
7.790000 -23.580030 294.079592 -0.000000 0.361809 0.311975 -0.124187 92.246565 175.996477 -0.000000 0.038703 0.316206 -0.360868
7.795000 -22.836547 304.642849 -0.000000 0.360650 0.301904 -0.124425 91.268645 174.167411 -0.000000 0.040076 0.326085 -0.361219
7.800000 -20.729834 315.394963 -0.000000 0.360266 0.291264 -0.123028 90.884364 171.359704 -0.000000 0.041871 0.336154 -0.361346
7.805000 -16.656280 326.271752 -0.000000 0.357045 0.280165 -0.124314 90.821410 167.545560 -0.000000 0.044879 0.346073 -0.360866
7.810000 -11.743254 336.947276 -0.000000 0.353896 0.269890 -0.124764 89.967474 163.378913 -0.000000 0.047274 0.356420 -0.361872
